<mxfile host="www.draw.io" modified="2020-03-02T13:14:00.700Z" agent="Mozilla/5.0 (Windows NT 10.0; Win64; x64) AppleWebKit/537.36 (KHTML, like Gecko) Chrome/80.0.3987.122 Safari/537.36" etag="3NABOg6BdlKk1apqiIiq" version="12.7.9" type="github">
  <diagram id="YUnINHrnrScHrrcLJpwl" name="Page-1">
    <mxGraphModel dx="1718" dy="962" grid="1" gridSize="10" guides="1" tooltips="1" connect="1" arrows="1" fold="1" page="1" pageScale="1" pageWidth="827" pageHeight="1169" math="0" shadow="0">
      <root>
        <mxCell id="0" />
        <mxCell id="1" parent="0" />
        <mxCell id="eF9UcHROH1XLMysGXLee-12" value="" style="ellipse;whiteSpace=wrap;html=1;aspect=fixed;" vertex="1" parent="1">
          <mxGeometry x="510.0000000000002" y="10.000000000000114" width="80" height="80" as="geometry" />
        </mxCell>
        <mxCell id="eF9UcHROH1XLMysGXLee-11" value="" style="ellipse;whiteSpace=wrap;html=1;aspect=fixed;" vertex="1" parent="1">
          <mxGeometry x="430.0000000000002" y="70.00000000000011" width="80" height="80" as="geometry" />
        </mxCell>
        <mxCell id="eF9UcHROH1XLMysGXLee-10" value="" style="ellipse;whiteSpace=wrap;html=1;aspect=fixed;" vertex="1" parent="1">
          <mxGeometry x="370.0000000000002" y="70.00000000000011" width="80" height="80" as="geometry" />
        </mxCell>
        <mxCell id="eF9UcHROH1XLMysGXLee-9" value="" style="ellipse;whiteSpace=wrap;html=1;aspect=fixed;" vertex="1" parent="1">
          <mxGeometry x="310.0000000000002" y="120.00000000000011" width="80" height="80" as="geometry" />
        </mxCell>
        <mxCell id="eF9UcHROH1XLMysGXLee-8" value="" style="ellipse;whiteSpace=wrap;html=1;aspect=fixed;" vertex="1" parent="1">
          <mxGeometry x="280.0000000000002" y="220.0000000000001" width="80" height="80" as="geometry" />
        </mxCell>
        <mxCell id="eF9UcHROH1XLMysGXLee-7" value="" style="ellipse;whiteSpace=wrap;html=1;aspect=fixed;" vertex="1" parent="1">
          <mxGeometry x="280.0000000000002" y="280.0000000000001" width="80" height="80" as="geometry" />
        </mxCell>
        <mxCell id="eF9UcHROH1XLMysGXLee-1" value="" style="endArrow=classic;html=1;" edge="1" parent="1">
          <mxGeometry width="50" height="50" relative="1" as="geometry">
            <mxPoint x="320" y="330" as="sourcePoint" />
            <mxPoint x="320" y="250" as="targetPoint" />
          </mxGeometry>
        </mxCell>
        <mxCell id="eF9UcHROH1XLMysGXLee-2" value="" style="endArrow=classic;html=1;" edge="1" parent="1">
          <mxGeometry width="50" height="50" relative="1" as="geometry">
            <mxPoint x="320.0000000000002" y="250" as="sourcePoint" />
            <mxPoint x="350" y="160" as="targetPoint" />
          </mxGeometry>
        </mxCell>
        <mxCell id="eF9UcHROH1XLMysGXLee-3" value="" style="endArrow=classic;html=1;" edge="1" parent="1">
          <mxGeometry width="50" height="50" relative="1" as="geometry">
            <mxPoint x="350.0000000000002" y="160" as="sourcePoint" />
            <mxPoint x="410" y="110" as="targetPoint" />
          </mxGeometry>
        </mxCell>
        <mxCell id="eF9UcHROH1XLMysGXLee-4" value="" style="endArrow=classic;html=1;" edge="1" parent="1">
          <mxGeometry width="50" height="50" relative="1" as="geometry">
            <mxPoint x="410.0000000000002" y="110.00000000000011" as="sourcePoint" />
            <mxPoint x="480" y="110" as="targetPoint" />
          </mxGeometry>
        </mxCell>
        <mxCell id="eF9UcHROH1XLMysGXLee-5" value="" style="endArrow=classic;html=1;" edge="1" parent="1">
          <mxGeometry width="50" height="50" relative="1" as="geometry">
            <mxPoint x="480.0000000000002" y="110.00000000000011" as="sourcePoint" />
            <mxPoint x="550" y="70" as="targetPoint" />
          </mxGeometry>
        </mxCell>
        <mxCell id="eF9UcHROH1XLMysGXLee-6" value="" style="endArrow=classic;html=1;fillColor=#e1d5e7;strokeColor=#9673a6;strokeWidth=3;" edge="1" parent="1">
          <mxGeometry width="50" height="50" relative="1" as="geometry">
            <mxPoint x="320.0000000000002" y="330" as="sourcePoint" />
            <mxPoint x="420" y="130" as="targetPoint" />
          </mxGeometry>
        </mxCell>
        <mxCell id="eF9UcHROH1XLMysGXLee-13" value="" style="endArrow=classic;html=1;fillColor=#e1d5e7;strokeColor=#9673a6;strokeWidth=3;" edge="1" parent="1">
          <mxGeometry width="50" height="50" relative="1" as="geometry">
            <mxPoint x="420" y="130" as="sourcePoint" />
            <mxPoint x="550" y="50" as="targetPoint" />
          </mxGeometry>
        </mxCell>
        <mxCell id="eF9UcHROH1XLMysGXLee-14" value="" style="ellipse;whiteSpace=wrap;html=1;aspect=fixed;" vertex="1" parent="1">
          <mxGeometry x="510.0000000000002" y="420.0000000000001" width="80" height="80" as="geometry" />
        </mxCell>
        <mxCell id="eF9UcHROH1XLMysGXLee-15" value="" style="ellipse;whiteSpace=wrap;html=1;aspect=fixed;" vertex="1" parent="1">
          <mxGeometry x="430.0000000000002" y="480.0000000000001" width="80" height="80" as="geometry" />
        </mxCell>
        <mxCell id="eF9UcHROH1XLMysGXLee-16" value="" style="ellipse;whiteSpace=wrap;html=1;aspect=fixed;" vertex="1" parent="1">
          <mxGeometry x="370.0000000000002" y="480.0000000000001" width="80" height="80" as="geometry" />
        </mxCell>
        <mxCell id="eF9UcHROH1XLMysGXLee-17" value="" style="ellipse;whiteSpace=wrap;html=1;aspect=fixed;" vertex="1" parent="1">
          <mxGeometry x="310.0000000000002" y="530.0000000000001" width="80" height="80" as="geometry" />
        </mxCell>
        <mxCell id="eF9UcHROH1XLMysGXLee-18" value="" style="ellipse;whiteSpace=wrap;html=1;aspect=fixed;" vertex="1" parent="1">
          <mxGeometry x="280.0000000000002" y="630.0000000000001" width="80" height="80" as="geometry" />
        </mxCell>
        <mxCell id="eF9UcHROH1XLMysGXLee-19" value="" style="ellipse;whiteSpace=wrap;html=1;aspect=fixed;" vertex="1" parent="1">
          <mxGeometry x="280.0000000000002" y="690.0000000000001" width="80" height="80" as="geometry" />
        </mxCell>
        <mxCell id="eF9UcHROH1XLMysGXLee-20" value="" style="endArrow=classic;html=1;" edge="1" parent="1">
          <mxGeometry width="50" height="50" relative="1" as="geometry">
            <mxPoint x="320.0000000000002" y="740" as="sourcePoint" />
            <mxPoint x="320.0000000000002" y="660" as="targetPoint" />
          </mxGeometry>
        </mxCell>
        <mxCell id="eF9UcHROH1XLMysGXLee-21" value="" style="endArrow=classic;html=1;" edge="1" parent="1">
          <mxGeometry width="50" height="50" relative="1" as="geometry">
            <mxPoint x="320.0000000000002" y="660" as="sourcePoint" />
            <mxPoint x="350.0000000000002" y="570.0000000000001" as="targetPoint" />
          </mxGeometry>
        </mxCell>
        <mxCell id="eF9UcHROH1XLMysGXLee-22" value="" style="endArrow=classic;html=1;" edge="1" parent="1">
          <mxGeometry width="50" height="50" relative="1" as="geometry">
            <mxPoint x="350.0000000000002" y="570.0000000000001" as="sourcePoint" />
            <mxPoint x="410.0000000000002" y="520.0000000000001" as="targetPoint" />
          </mxGeometry>
        </mxCell>
        <mxCell id="eF9UcHROH1XLMysGXLee-23" value="" style="endArrow=classic;html=1;" edge="1" parent="1">
          <mxGeometry width="50" height="50" relative="1" as="geometry">
            <mxPoint x="410.0000000000002" y="520.0000000000001" as="sourcePoint" />
            <mxPoint x="480.0000000000002" y="520.0000000000001" as="targetPoint" />
          </mxGeometry>
        </mxCell>
        <mxCell id="eF9UcHROH1XLMysGXLee-24" value="" style="endArrow=classic;html=1;" edge="1" parent="1">
          <mxGeometry width="50" height="50" relative="1" as="geometry">
            <mxPoint x="480.0000000000002" y="520.0000000000001" as="sourcePoint" />
            <mxPoint x="550.0000000000002" y="480.0000000000001" as="targetPoint" />
          </mxGeometry>
        </mxCell>
        <mxCell id="eF9UcHROH1XLMysGXLee-25" value="" style="endArrow=classic;html=1;fillColor=#e1d5e7;strokeColor=#9673a6;strokeWidth=3;entryX=0.475;entryY=0.425;entryDx=0;entryDy=0;entryPerimeter=0;" edge="1" parent="1" target="eF9UcHROH1XLMysGXLee-14">
          <mxGeometry width="50" height="50" relative="1" as="geometry">
            <mxPoint x="320.0000000000002" y="740" as="sourcePoint" />
            <mxPoint x="420.0000000000002" y="540.0000000000001" as="targetPoint" />
          </mxGeometry>
        </mxCell>
      </root>
    </mxGraphModel>
  </diagram>
</mxfile>
